<svg width="580" height="220" viewBox="0 0 580 220" fill="none" xmlns="http://www.w3.org/2000/svg">
  <defs>
    <linearGradient id="bg" x1="0" y1="0" x2="580" y2="220" gradientUnits="userSpaceOnUse">
      <stop stop-color="#10241E"/>
      <stop offset="1" stop-color="#1B4031"/>
    </linearGradient>
    <radialGradient id="glow" cx="0" cy="0" r="1" gradientUnits="userSpaceOnUse" gradientTransform="translate(510 18) rotate(135) scale(250 180)">
      <stop stop-color="#F59E0B" stop-opacity="0.30"/>
      <stop offset="1" stop-color="#F59E0B" stop-opacity="0"/>
    </radialGradient>
  </defs>
  <rect width="580" height="220" rx="22" fill="url(#bg)"/>
  <rect width="580" height="220" rx="22" fill="url(#glow)"/>
  <rect x="24" y="22" width="124" height="28" rx="14" fill="#1B3B2F" stroke="#34D399" stroke-opacity="0.7"/>
  <text x="43" y="41" fill="#D1FAE5" font-family="Inter, Segoe UI, Arial, sans-serif" font-size="12" font-weight="700" letter-spacing="1">AI PRODUCT</text>
  <text x="24" y="86" fill="#F8FAFC" font-family="Inter, Segoe UI, Arial, sans-serif" font-size="30" font-weight="800">KandiaAI</text>
  <text x="24" y="116" fill="#BBF7D0" font-family="Inter, Segoe UI, Arial, sans-serif" font-size="15" font-weight="600">African-first career intelligence product</text>
  <text x="24" y="147" fill="#D6E4F0" font-family="Inter, Segoe UI, Arial, sans-serif" font-size="13">Next.js · TypeScript · Human-centered AI</text>
  <rect x="24" y="170" width="208" height="28" rx="14" fill="#17352B" stroke="#34D399" stroke-opacity="0.55"/>
  <text x="43" y="189" fill="#D1FAE5" font-family="Inter, Segoe UI, Arial, sans-serif" font-size="12" font-weight="700">Profile and opportunity intelligence</text>
  <rect x="246" y="170" width="224" height="28" rx="14" fill="#17352B" stroke="#F59E0B" stroke-opacity="0.55"/>
  <text x="267" y="189" fill="#FEF3C7" font-family="Inter, Segoe UI, Arial, sans-serif" font-size="12" font-weight="700">Grounded career recommendations</text>
  <g opacity="0.9">
    <path d="M481 105C481 78 502 58 529 58C537 58 545 60 552 64C539 86 524 105 501 127C489 121 481 114 481 105Z" fill="#34D399" fill-opacity="0.34" stroke="#6EE7B7" stroke-opacity="0.65"/>
    <path d="M501 127C516 108 529 89 539 68" stroke="#FCD34D" stroke-width="3" stroke-linecap="round"/>
  </g>
  <rect x="1" y="1" width="578" height="218" rx="21" stroke="#D1FAE5" stroke-opacity="0.14" stroke-width="2"/>
</svg>
