<svg width="1200" height="340" viewBox="0 0 1200 340" fill="none" xmlns="http://www.w3.org/2000/svg" role="img" aria-label="Komla Alex Labou, Data and AI Engineer">
  <defs>
    <linearGradient id="bg" x1="0" y1="0" x2="1200" y2="340" gradientUnits="userSpaceOnUse">
      <stop stop-color="#0B0D13"/><stop offset="1" stop-color="#10131B"/>
    </linearGradient>
    <radialGradient id="glow" cx="0" cy="0" r="1" gradientUnits="userSpaceOnUse" gradientTransform="translate(980 0) rotate(90) scale(374 540)">
      <stop stop-color="#6E82FF" stop-opacity="0.32"/><stop offset="1" stop-color="#6E82FF" stop-opacity="0"/>
    </radialGradient>
    <pattern id="grid" width="40" height="40" patternUnits="userSpaceOnUse">
      <path d="M 40 0 L 0 0 0 40" fill="none" stroke="#FFFFFF" stroke-opacity="0.035"/>
    </pattern>
  </defs>
  <rect width="1200" height="340" rx="20" fill="url(#bg)"/>
  <rect width="1200" height="340" rx="20" fill="url(#grid)"/>
  <rect width="1200" height="340" rx="20" fill="url(#glow)"/>
  <g><line x1="880" y1="92" x2="968" y2="140" stroke="#93A4FF" stroke-opacity="0.22"/><line x1="968" y1="140" x2="1062" y2="96" stroke="#93A4FF" stroke-opacity="0.22"/><line x1="1062" y1="96" x2="1120" y2="182" stroke="#93A4FF" stroke-opacity="0.22"/><line x1="1120" y1="182" x2="1030" y2="250" stroke="#93A4FF" stroke-opacity="0.22"/><line x1="1030" y1="250" x2="920" y2="222" stroke="#93A4FF" stroke-opacity="0.22"/><line x1="920" y1="222" x2="850" y2="280" stroke="#93A4FF" stroke-opacity="0.22"/><line x1="968" y1="140" x2="920" y2="222" stroke="#93A4FF" stroke-opacity="0.22"/><line x1="1062" y1="96" x2="1030" y2="250" stroke="#93A4FF" stroke-opacity="0.22"/><line x1="968" y1="140" x2="1120" y2="182" stroke="#93A4FF" stroke-opacity="0.22"/><circle cx="880" cy="92" r="7" fill="#93A4FF" fill-opacity="0.85"/><circle cx="968" cy="140" r="5" fill="#A77BFF" fill-opacity="0.85"/><circle cx="1062" cy="96" r="7" fill="#93A4FF" fill-opacity="0.85"/><circle cx="1120" cy="182" r="5" fill="#6EE7B7" fill-opacity="0.85"/><circle cx="1030" cy="250" r="7" fill="#A77BFF" fill-opacity="0.85"/><circle cx="920" cy="222" r="5" fill="#93A4FF" fill-opacity="0.85"/><circle cx="850" cy="280" r="7" fill="#6EE7B7" fill-opacity="0.85"/></g>
  <rect x="64" y="52" width="204" height="26" rx="13" fill="#FFFFFF" fill-opacity="0.04" stroke="#A7F3D0" stroke-opacity="0.35"/><circle cx="79" cy="65" r="4" fill="#34D399"/><text x="90" y="69.5" fill="#A7F3D0" font-family="SFMono-Regular, Consolas, Menlo, monospace" font-size="11.5" letter-spacing="0.4">CURRENTLY · CEPS, PARIS</text>
  <text x="62" y="150" fill="#EDEDF1" font-family="Segoe UI, Inter, Helvetica, Arial, sans-serif" font-size="58" font-weight="600" letter-spacing="-2.2">Komla Alex Labou</text>
  <text x="64" y="212" fill="#93A4FF" font-family="Georgia, Times New Roman, serif" font-style="italic" font-size="50">Data &amp; AI Engineer.</text>
  <text x="64" y="259" fill="#A9AFBD" font-family="Segoe UI, Inter, Helvetica, Arial, sans-serif" font-size="18">I connect data, models and business needs to build AI systems that can be checked.</text>
  <text x="64" y="295" fill="#767C8B" font-family="SFMono-Regular, Consolas, Menlo, monospace" font-size="13" letter-spacing="1.4">DATA ENGINEERING · MACHINE LEARNING · AGENTIC AI · EVALUATION</text>
  <rect x="0.5" y="0.5" width="1199" height="339" rx="19.5" stroke="#FFFFFF" stroke-opacity="0.09"/>
</svg>